<mxfile host="65bd71144e">
    <diagram id="rfSgEH0YvGjzpYaAYQI6" name="New Blog">
        <mxGraphModel dx="2088" dy="1837" grid="1" gridSize="10" guides="1" tooltips="1" connect="1" arrows="1" fold="1" page="1" pageScale="1" pageWidth="850" pageHeight="1100" math="0" shadow="0">
            <root>
                <mxCell id="0"/>
                <mxCell id="1" parent="0"/>
                <mxCell id="199" value="โจทย์ ข้อที่ 1&lt;br&gt;1. สร้างไฟล์ไว้ใน Master (resource/views/master) ชื่อว่า new-blog.blade.php&lt;br&gt;2. สร้าง form สำหรับเพิ่มข้อมูล Blog&lt;br&gt;3. ช่อง input ประกอบด้วย&amp;nbsp;&lt;br&gt;&lt;span style=&quot;&quot;&gt;&#9;&lt;/span&gt;3.1)​ Topic ช่ือ blog (required)&lt;br&gt;&lt;span style=&quot;&quot;&gt;&#9;&lt;/span&gt;3.2) Cover image ภาพปก blog (required)&lt;br&gt;&lt;span style=&quot;&quot;&gt;&#9;&lt;/span&gt;3.3) Description คำอธิบายเพิ่มเติม (required)&lt;br&gt;&lt;span style=&quot;&quot;&gt;&#9;&lt;/span&gt;3.4) Paragraph ช่องสำหรับใส่ข้อความย่อหน้าที่ 1 (required)&lt;br&gt;&lt;span style=&quot;&quot;&gt;&#9;&lt;/span&gt;3.5) Paragraph Image สำหรับใส่รูปภาพใต้ paragraph&amp;nbsp;&amp;nbsp;&lt;br&gt;&lt;span style=&quot;&quot;&gt;&#9;&lt;/span&gt;3.6) ปุ่ม Add paragraph ปุ่มสำหรับเพิ่ม ชุด input ของ paragraph ตามข้อที่ 3.4-3.5 เมื่อกดที่ปุ่ม Add paragraph ต้องปรากฏ ชุด paragraph input ตามที่กด&lt;br&gt;&lt;span style=&quot;&quot;&gt;&#9;&lt;/span&gt;3.7) Ref สำหรับใส่แหล่งอ้างอิง&lt;br&gt;&lt;span style=&quot;&quot;&gt;&#9;&lt;/span&gt;3.8) Category สำหรับกำกับประเภทของบทความ&lt;br&gt;&lt;span style=&quot;&quot;&gt;&#9;&lt;/span&gt;3.9) ปุ่ม Create สำหรับบันทึกข้อมูล&lt;br&gt;&lt;span style=&quot;&quot;&gt;&#9;&lt;/span&gt;4.0) Notify Toast สำหรับแจ้งเตือนการสร้างบทความสำเร็จ&amp;nbsp;&lt;br&gt;&lt;span style=&quot;&quot;&gt;&#9;&lt;/span&gt;4.1) หลังจาก Toast เด้ง ให้ Navigate กลับไปหน้า master-admin&lt;br&gt;&lt;br&gt;&lt;br&gt;โจทย์ ข้อที่ 2&lt;br&gt;1. สร้างไฟล์ไว้ใน Master (resource/views/master) ชื่อว่า new-promo.blade.php&lt;br&gt;2. สร้าง form สำหรับเพิ่มข้อมูล promotion&lt;br&gt;3. ช่อง input ประกอบด้วย&lt;br&gt;&lt;span style=&quot;white-space: pre;&quot;&gt;&#9;&lt;/span&gt;3.1) Banner Image สำหรับใส่ภาพ Banner (required)&lt;br&gt;&lt;span style=&quot;white-space: pre;&quot;&gt;&#9;&lt;/span&gt;3.2) Title ชื่อ promotion (required)&lt;br&gt;&lt;span style=&quot;white-space: pre;&quot;&gt;&#9;&lt;/span&gt;3.3) description ใส่ข้อความคำอธิบาย promotion (required)&lt;br&gt;&lt;span style=&quot;white-space: pre;&quot;&gt;&#9;&lt;/span&gt;3.4) ปุ่ม Create บันทึกข้อมูลที่สร้าง&lt;br&gt;&lt;span style=&quot;white-space: pre;&quot;&gt;&#9;&lt;/span&gt;3.5) Notify Toast&amp;nbsp;&lt;br&gt;&lt;span style=&quot;white-space: pre;&quot;&gt;&#9;&lt;/span&gt;3.6)&amp;nbsp;&lt;span style=&quot;white-space: pre;&quot;&gt;&#9;&lt;/span&gt;Navigate ไปหน้า master-admin" style="text;html=1;align=left;verticalAlign=middle;resizable=0;points=[];autosize=1;strokeColor=none;fillColor=none;" parent="1" vertex="1">
                    <mxGeometry x="-1690" y="-90" width="790" height="400" as="geometry"/>
                </mxCell>
            </root>
        </mxGraphModel>
    </diagram>
</mxfile>